<?xml version="1.0" encoding="UTF-8"?><svg id="_レイヤー_2" xmlns="http://www.w3.org/2000/svg" xmlns:xlink="http://www.w3.org/1999/xlink" viewBox="0 0 99.43 86.25"><defs><style>.cls-1{fill:#ba9632;}.cls-2{fill:url(#_スチール_円形_);}</style><radialGradient id="_スチール_円形_" cx="49.72" cy="43.13" fx="49.72" fy="43.13" r="46.54" gradientUnits="userSpaceOnUse"><stop offset="0" stop-color="#f0eeeb"/><stop offset="0" stop-color="#fbfaf9"/><stop offset="0" stop-color="#fff"/><stop offset=".15" stop-color="#f0f0f0"/><stop offset=".44" stop-color="#c9caca"/><stop offset=".52" stop-color="#bdbebe"/><stop offset=".6" stop-color="#b3b4b4"/><stop offset=".72" stop-color="#999b9c"/><stop offset=".88" stop-color="#6e7375"/><stop offset="1" stop-color="#4c5355"/></radialGradient></defs><g id="_レイヤー_1-2"><path class="cls-1" d="M18.11,12.62c-2.43,3.67-4.83,7.4-6.62,11.42-1.81,4.01-2.88,8.33-3.13,12.7-.1,2.19-.12,4.38.11,6.56.23,2.17.57,4.33,1.16,6.43.58,2.1,1.34,4.14,2.27,6.11.95,1.95,2.07,3.82,3.33,5.59,5.1,7.06,12.57,12.16,20.7,15.11,4.07,1.48,8.32,2.47,12.62,2.96l1.62.17c.57.05,1.14.12,1.71.21,1.14.17,2.27.42,3.38.74,2.18.63,4.44,1.58,6.32,3.16l-1.81,2.11c-.72-.62-1.55-1.16-2.44-1.6-.88-.44-1.85-.8-2.85-1.12-.99-.31-2-.55-3.02-.72-.51-.09-1.03-.16-1.55-.21l-1.68-.21c-4.48-.59-8.9-1.7-13.13-3.32-2.11-.82-4.17-1.77-6.17-2.84-1.99-1.09-3.9-2.31-5.73-3.66-1.83-1.34-3.54-2.85-5.14-4.47-1.59-1.62-3.07-3.36-4.36-5.24-1.3-1.87-2.43-3.85-3.39-5.92-.94-2.08-1.69-4.23-2.26-6.44-.58-2.2-.9-4.46-1.09-6.71-.19-2.26-.13-4.53,0-6.78.33-4.52,1.53-9,3.47-13.08,1.92-4.1,4.4-7.82,6.91-11.46l.77.52Z"/><path class="cls-1" d="M.89,26.3c-.78,2.53-.09,5.39,1.24,7.61s3.22,3.92,5.08,5.57c-.25-2.71-.6-5.43-1.55-7.93-.95-2.5-2.43-4.54-4.77-5.25Z"/><path class="cls-1" d="M16.2,29.78c.18,2.67-1.13,5.24-2.92,7.01-1.78,1.77-4,2.87-6.18,3.94.85-2.55,1.81-5.08,3.29-7.23,1.48-2.15,3.38-3.7,5.8-3.72Z"/><path class="cls-1" d="M11.37,56.14c-1.06-1.82-3.15-2.39-4.97-3.13-1.63-.65-3.2-1.57-4.42-2.95S-.06,46.8,0,44.85c2.45-.07,4.99,1.4,6.72,3.35,1.73,1.95,3.81,5.35,4.65,7.93Z"/><path class="cls-1" d="M10.45,54.54c.22-2.01,1.77-3.41,3.04-4.84,1.13-1.27,2.12-2.74,2.64-4.44.52-1.7.52-3.67-.24-5.29-2.08,1.02-3.69,3.39-4.43,5.8-.74,2.41-1.25,6.21-1.02,8.77Z"/><path class="cls-1" d="M15.38,16.63c.53-2.28,2.65-3.92,4.42-5.57,1.58-1.47,3.01-3.17,3.88-5.11.86-1.94,1.11-4.16.34-5.95-2.75,1.23-5.06,3.96-6.29,6.71-1.23,2.75-2.33,7.05-2.35,9.92Z"/><path class="cls-1" d="M9.38,26.96c1.15-1.62,3.17-1.94,4.95-2.45,1.59-.45,3.16-1.16,4.42-2.34,1.26-1.18,2.19-2.89,2.28-4.73-2.31-.31-4.83.82-6.62,2.49-1.79,1.67-4.03,4.67-5.03,7.03Z"/><path class="cls-1" d="M9.53,25.91c.48-2.11-.55-4.23-1.3-6.23-.67-1.79-1.14-3.72-1.05-5.66.08-1.94.77-3.9,2.09-5.16,1.7,1.98,2.45,5.09,2.33,7.84-.11,2.75-.94,6.77-2.07,9.21Z"/><path class="cls-1" d="M17.64,66.01c-1.87.56-3.84,1.07-5.71.53-1.42-.42-2.66-1.43-3.67-2.64-1-1.21-1.79-2.62-2.58-4.02,3.49.77,7.07,1.6,9.83,4.14.69.64,1.35,1.49,2.13,1.99Z"/><path class="cls-1" d="M31.05,75.58c-.28-1.23-1.21-2.19-2.17-3s-2-1.56-2.68-2.62c-1.45-2.27-.84-5.32-1.81-7.83,3.51,1.93,6.19,5.35,7.15,9.27.38,1.55.43,2.9-.5,4.19Z"/><path class="cls-1" d="M27.51,73.44c-1.22.3-2.47-.19-3.6-.78-1.13-.59-2.24-1.3-3.47-1.49-2.64-.4-5.1,1.67-7.76,1.87,3.21,2.66,7.4,3.77,11.31,2.9,1.54-.34,2.77-.94,3.53-2.49Z"/><path class="cls-1" d="M37.07,77.83c-1.43.36-2.55,1.53-3.47,2.73-.93,1.2-1.78,2.52-3.01,3.37-2.63,1.83-6.21,1.09-9.14,2.32,2.19-4.4,6.14-7.78,10.71-9.02,1.8-.49,3.39-.56,4.91.59Z"/><path class="cls-1" d="M45.24,80.39c-.61-1.22-1.77-1.95-2.91-2.51-1.14-.56-2.35-1.02-3.3-1.93-2.02-1.96-2.28-5.4-3.91-7.77,3.9.94,7.42,3.73,9.43,7.6.79,1.53,1.22,2.96.68,4.62Z"/><path class="cls-1" d="M18.18,52.89c-1.24,1.61-1.95,3.74-1.96,5.9-.01,2.17.67,4.35,1.89,6.08.88,1.24,2.06,2.32,2.44,3.84-.58-2.03.06-4.33.1-6.44.05-2.98-1.39-6.62-2.48-9.39Z"/><path class="cls-1" d="M81.32,12.62c2.43,3.67,4.83,7.4,6.62,11.42,1.81,4.01,2.88,8.33,3.13,12.7.1,2.19.12,4.38-.11,6.56-.23,2.17-.57,4.33-1.16,6.43-.58,2.1-1.34,4.14-2.27,6.11-.95,1.95-2.07,3.82-3.33,5.59-5.1,7.06-12.57,12.16-20.7,15.11-4.07,1.48-8.32,2.47-12.62,2.96l-1.62.17c-.57.05-1.14.12-1.71.21-1.14.17-2.27.42-3.38.74-2.18.63-4.44,1.58-6.32,3.16l1.81,2.11c.72-.62,1.55-1.16,2.44-1.6.88-.44,1.85-.8,2.85-1.12.99-.31,2-.55,3.02-.72.51-.09,1.03-.16,1.55-.21l1.68-.21c4.48-.59,8.9-1.7,13.13-3.32,2.11-.82,4.17-1.77,6.17-2.84,1.99-1.09,3.9-2.31,5.73-3.66,1.83-1.34,3.54-2.85,5.14-4.47,1.59-1.62,3.07-3.36,4.36-5.24,1.3-1.87,2.43-3.85,3.39-5.92.94-2.08,1.69-4.23,2.26-6.44.58-2.2.9-4.46,1.09-6.71.19-2.26.13-4.53,0-6.78-.33-4.52-1.53-9-3.47-13.08-1.92-4.1-4.4-7.82-6.91-11.46l-.77.52Z"/><path class="cls-1" d="M98.54,26.3c.78,2.53.09,5.39-1.24,7.61s-3.22,3.92-5.09,5.57c.25-2.71.6-5.43,1.55-7.93.95-2.5,2.43-4.54,4.77-5.25Z"/><path class="cls-1" d="M83.24,29.78c-.18,2.67,1.13,5.24,2.92,7.01,1.78,1.77,4,2.87,6.18,3.94-.85-2.55-1.81-5.08-3.29-7.23-1.48-2.15-3.38-3.7-5.8-3.72Z"/><path class="cls-1" d="M88.07,56.14c1.06-1.82,3.15-2.39,4.97-3.13,1.63-.65,3.2-1.57,4.42-2.95s2.04-3.27,1.97-5.21c-2.45-.07-4.99,1.4-6.72,3.35-1.73,1.95-3.81,5.35-4.65,7.93Z"/><path class="cls-1" d="M88.99,54.54c-.22-2.01-1.77-3.41-3.04-4.84-1.13-1.27-2.12-2.74-2.64-4.44-.52-1.7-.52-3.67.24-5.29,2.08,1.02,3.69,3.39,4.43,5.8.74,2.41,1.25,6.21,1.02,8.77Z"/><path class="cls-1" d="M84.05,16.63c-.53-2.28-2.65-3.92-4.42-5.57-1.58-1.47-3.01-3.17-3.88-5.11-.86-1.94-1.11-4.16-.34-5.95,2.75,1.23,5.06,3.96,6.29,6.71,1.23,2.75,2.33,7.05,2.35,9.92Z"/><path class="cls-1" d="M90.05,26.96c-1.15-1.62-3.17-1.94-4.95-2.45-1.59-.45-3.16-1.16-4.42-2.34-1.26-1.18-2.19-2.89-2.28-4.73,2.31-.31,4.83.82,6.62,2.49,1.79,1.67,4.03,4.67,5.03,7.03Z"/><path class="cls-1" d="M89.91,25.91c-.48-2.11.55-4.23,1.3-6.23.67-1.79,1.14-3.72,1.05-5.66-.08-1.94-.77-3.9-2.09-5.16-1.7,1.98-2.45,5.09-2.33,7.84.11,2.75.94,6.77,2.07,9.21Z"/><path class="cls-1" d="M81.8,66.01c1.87.56,3.84,1.07,5.71.53,1.42-.42,2.66-1.43,3.67-2.64,1-1.21,1.79-2.62,2.58-4.02-3.49.77-7.07,1.6-9.83,4.14-.69.64-1.35,1.49-2.13,1.99Z"/><path class="cls-1" d="M68.39,75.58c.28-1.23,1.21-2.19,2.17-3,.96-.81,2-1.56,2.68-2.62,1.45-2.27.84-5.32,1.81-7.83-3.51,1.93-6.19,5.35-7.15,9.27-.38,1.55-.43,2.9.5,4.19Z"/><path class="cls-1" d="M71.93,73.44c1.22.3,2.47-.19,3.6-.78,1.13-.59,2.24-1.3,3.47-1.49,2.64-.4,5.1,1.67,7.76,1.87-3.21,2.66-7.4,3.77-11.31,2.9-1.54-.34-2.77-.94-3.53-2.49Z"/><path class="cls-1" d="M62.36,77.83c1.43.36,2.55,1.53,3.47,2.73.93,1.2,1.78,2.52,3.01,3.37,2.63,1.83,6.21,1.09,9.14,2.32-2.19-4.4-6.14-7.78-10.71-9.02-1.8-.49-3.39-.56-4.91.59Z"/><path class="cls-1" d="M54.2,80.39c.61-1.22,1.77-1.95,2.91-2.51,1.14-.56,2.35-1.02,3.3-1.93,2.02-1.96,2.28-5.4,3.91-7.77-3.9.94-7.42,3.73-9.43,7.6-.79,1.53-1.22,2.96-.68,4.62Z"/><path class="cls-1" d="M81.25,52.89c1.24,1.61,1.95,3.74,1.96,5.9.01,2.17-.67,4.35-1.89,6.08-.88,1.24-2.06,2.32-2.44,3.84.58-2.03-.06-4.33-.1-6.44-.05-2.98,1.39-6.62,2.48-9.39Z"/><path class="cls-2" d="M18.11,12.62c-2.43,3.67-4.83,7.4-6.62,11.42-1.81,4.01-2.88,8.33-3.13,12.7-.1,2.19-.12,4.38.11,6.56.23,2.17.57,4.33,1.16,6.43.58,2.1,1.34,4.14,2.27,6.11.95,1.95,2.07,3.82,3.33,5.59,5.1,7.06,12.57,12.16,20.7,15.11,4.07,1.48,8.32,2.47,12.62,2.96l1.62.17c.57.05,1.14.12,1.71.21,1.14.17,2.27.42,3.38.74,2.18.63,4.44,1.58,6.32,3.16l-1.81,2.11c-.72-.62-1.55-1.16-2.44-1.6-.88-.44-1.85-.8-2.85-1.12-.99-.31-2-.55-3.02-.72-.51-.09-1.03-.16-1.55-.21l-1.68-.21c-4.48-.59-8.9-1.7-13.13-3.32-2.11-.82-4.17-1.77-6.17-2.84-1.99-1.09-3.9-2.31-5.73-3.66-1.83-1.34-3.54-2.85-5.14-4.47-1.59-1.62-3.07-3.36-4.36-5.24-1.3-1.87-2.43-3.85-3.39-5.92-.94-2.08-1.69-4.23-2.26-6.44-.58-2.2-.9-4.46-1.09-6.71-.19-2.26-.13-4.53,0-6.78.33-4.52,1.53-9,3.47-13.08,1.92-4.1,4.4-7.82,6.91-11.46l.77.52Z"/><path class="cls-2" d="M.89,26.3c-.78,2.53-.09,5.39,1.24,7.61s3.22,3.92,5.08,5.57c-.25-2.71-.6-5.43-1.55-7.93-.95-2.5-2.43-4.54-4.77-5.25Z"/><path class="cls-2" d="M16.2,29.78c.18,2.67-1.13,5.24-2.92,7.01-1.78,1.77-4,2.87-6.18,3.94.85-2.55,1.81-5.08,3.29-7.23,1.48-2.15,3.38-3.7,5.8-3.72Z"/><path class="cls-2" d="M11.37,56.14c-1.06-1.82-3.15-2.39-4.97-3.13-1.63-.65-3.2-1.57-4.42-2.95S-.06,46.8,0,44.85c2.45-.07,4.99,1.4,6.72,3.35,1.73,1.95,3.81,5.35,4.65,7.93Z"/><path class="cls-2" d="M10.45,54.54c.22-2.01,1.77-3.41,3.04-4.84,1.13-1.27,2.12-2.74,2.64-4.44.52-1.7.52-3.67-.24-5.29-2.08,1.02-3.69,3.39-4.43,5.8-.74,2.41-1.25,6.21-1.02,8.77Z"/><path class="cls-2" d="M15.38,16.63c.53-2.28,2.65-3.92,4.42-5.57,1.58-1.47,3.01-3.17,3.88-5.11.86-1.94,1.11-4.16.34-5.95-2.75,1.23-5.06,3.96-6.29,6.71-1.23,2.75-2.33,7.05-2.35,9.92Z"/><path class="cls-2" d="M9.38,26.96c1.15-1.62,3.17-1.94,4.95-2.45,1.59-.45,3.16-1.16,4.42-2.34,1.26-1.18,2.19-2.89,2.28-4.73-2.31-.31-4.83.82-6.62,2.49-1.79,1.67-4.03,4.67-5.03,7.03Z"/><path class="cls-2" d="M9.53,25.91c.48-2.11-.55-4.23-1.3-6.23-.67-1.79-1.14-3.72-1.05-5.66.08-1.94.77-3.9,2.09-5.16,1.7,1.98,2.45,5.09,2.33,7.84-.11,2.75-.94,6.77-2.07,9.21Z"/><path class="cls-2" d="M17.64,66.01c-1.87.56-3.84,1.07-5.71.53-1.42-.42-2.66-1.43-3.67-2.64-1-1.21-1.79-2.62-2.58-4.02,3.49.77,7.07,1.6,9.83,4.14.69.64,1.35,1.49,2.13,1.99Z"/><path class="cls-2" d="M31.05,75.58c-.28-1.23-1.21-2.19-2.17-3s-2-1.56-2.68-2.62c-1.45-2.27-.84-5.32-1.81-7.83,3.51,1.93,6.19,5.35,7.15,9.27.38,1.55.43,2.9-.5,4.19Z"/><path class="cls-2" d="M27.51,73.44c-1.22.3-2.47-.19-3.6-.78-1.13-.59-2.24-1.3-3.47-1.49-2.64-.4-5.1,1.67-7.76,1.87,3.21,2.66,7.4,3.77,11.31,2.9,1.54-.34,2.77-.94,3.53-2.49Z"/><path class="cls-2" d="M37.07,77.83c-1.43.36-2.55,1.53-3.47,2.73-.93,1.2-1.78,2.52-3.01,3.37-2.63,1.83-6.21,1.09-9.14,2.32,2.19-4.4,6.14-7.78,10.71-9.02,1.8-.49,3.39-.56,4.91.59Z"/><path class="cls-2" d="M45.24,80.39c-.61-1.22-1.77-1.95-2.91-2.51-1.14-.56-2.35-1.02-3.3-1.93-2.02-1.96-2.28-5.4-3.91-7.77,3.9.94,7.42,3.73,9.43,7.6.79,1.53,1.22,2.96.68,4.62Z"/><path class="cls-2" d="M18.18,52.89c-1.24,1.61-1.95,3.74-1.96,5.9-.01,2.17.67,4.35,1.89,6.08.88,1.24,2.06,2.32,2.44,3.84-.58-2.03.06-4.33.1-6.44.05-2.98-1.39-6.62-2.48-9.39Z"/><path class="cls-2" d="M81.32,12.62c2.43,3.67,4.83,7.4,6.62,11.42,1.81,4.01,2.88,8.33,3.13,12.7.1,2.19.12,4.38-.11,6.56-.23,2.17-.57,4.33-1.16,6.43-.58,2.1-1.34,4.14-2.27,6.11-.95,1.95-2.07,3.82-3.33,5.59-5.1,7.06-12.57,12.16-20.7,15.11-4.07,1.48-8.32,2.47-12.62,2.96l-1.62.17c-.57.05-1.14.12-1.71.21-1.14.17-2.27.42-3.38.74-2.18.63-4.44,1.58-6.32,3.16l1.81,2.11c.72-.62,1.55-1.16,2.44-1.6.88-.44,1.85-.8,2.85-1.12.99-.31,2-.55,3.02-.72.51-.09,1.03-.16,1.55-.21l1.68-.21c4.48-.59,8.9-1.7,13.13-3.32,2.11-.82,4.17-1.77,6.17-2.84,1.99-1.09,3.9-2.31,5.73-3.66,1.83-1.34,3.54-2.85,5.14-4.47,1.59-1.62,3.07-3.36,4.36-5.24,1.3-1.87,2.43-3.85,3.39-5.92.94-2.08,1.69-4.23,2.26-6.44.58-2.2.9-4.46,1.09-6.71.19-2.26.13-4.53,0-6.78-.33-4.52-1.53-9-3.47-13.08-1.92-4.1-4.4-7.82-6.91-11.46l-.77.52Z"/><path class="cls-2" d="M98.54,26.3c.78,2.53.09,5.39-1.24,7.61s-3.22,3.92-5.09,5.57c.25-2.71.6-5.43,1.55-7.93.95-2.5,2.43-4.54,4.77-5.25Z"/><path class="cls-2" d="M83.24,29.78c-.18,2.67,1.13,5.24,2.92,7.01,1.78,1.77,4,2.87,6.18,3.94-.85-2.55-1.81-5.08-3.29-7.23-1.48-2.15-3.38-3.7-5.8-3.72Z"/><path class="cls-2" d="M88.07,56.14c1.06-1.82,3.15-2.39,4.97-3.13,1.63-.65,3.2-1.57,4.42-2.95s2.04-3.27,1.97-5.21c-2.45-.07-4.99,1.4-6.72,3.35-1.73,1.95-3.81,5.35-4.65,7.93Z"/><path class="cls-2" d="M88.99,54.54c-.22-2.01-1.77-3.41-3.04-4.84-1.13-1.27-2.12-2.74-2.64-4.44-.52-1.7-.52-3.67.24-5.29,2.08,1.02,3.69,3.39,4.43,5.8.74,2.41,1.25,6.21,1.02,8.77Z"/><path class="cls-2" d="M84.05,16.63c-.53-2.28-2.65-3.92-4.42-5.57-1.58-1.47-3.01-3.17-3.88-5.11-.86-1.94-1.11-4.16-.34-5.95,2.75,1.23,5.06,3.96,6.29,6.71,1.23,2.75,2.33,7.05,2.35,9.92Z"/><path class="cls-2" d="M90.05,26.96c-1.15-1.62-3.17-1.94-4.95-2.45-1.59-.45-3.16-1.16-4.42-2.34-1.26-1.18-2.19-2.89-2.28-4.73,2.31-.31,4.83.82,6.62,2.49,1.79,1.67,4.03,4.67,5.03,7.03Z"/><path class="cls-2" d="M89.91,25.91c-.48-2.11.55-4.23,1.3-6.23.67-1.79,1.14-3.72,1.05-5.66-.08-1.94-.77-3.9-2.09-5.16-1.7,1.98-2.45,5.09-2.33,7.84.11,2.75.94,6.77,2.07,9.21Z"/><path class="cls-2" d="M81.8,66.01c1.87.56,3.84,1.07,5.71.53,1.42-.42,2.66-1.43,3.67-2.64,1-1.21,1.79-2.62,2.58-4.02-3.49.77-7.07,1.6-9.83,4.14-.69.64-1.35,1.49-2.13,1.99Z"/><path class="cls-2" d="M68.39,75.58c.28-1.23,1.21-2.19,2.17-3,.96-.81,2-1.56,2.68-2.62,1.45-2.27.84-5.32,1.81-7.83-3.51,1.93-6.19,5.35-7.15,9.27-.38,1.55-.43,2.9.5,4.19Z"/><path class="cls-2" d="M71.93,73.44c1.22.3,2.47-.19,3.6-.78,1.13-.59,2.24-1.3,3.47-1.49,2.64-.4,5.1,1.67,7.76,1.87-3.21,2.66-7.4,3.77-11.31,2.9-1.54-.34-2.77-.94-3.53-2.49Z"/><path class="cls-2" d="M62.36,77.83c1.43.36,2.55,1.53,3.47,2.73.93,1.2,1.78,2.52,3.01,3.37,2.63,1.83,6.21,1.09,9.14,2.32-2.19-4.4-6.14-7.78-10.71-9.02-1.8-.49-3.39-.56-4.91.59Z"/><path class="cls-2" d="M54.2,80.39c.61-1.22,1.77-1.95,2.91-2.51,1.14-.56,2.35-1.02,3.3-1.93,2.02-1.96,2.28-5.4,3.91-7.77-3.9.94-7.42,3.73-9.43,7.6-.79,1.53-1.22,2.96-.68,4.62Z"/><path class="cls-2" d="M81.25,52.89c1.24,1.61,1.95,3.74,1.96,5.9.01,2.17-.67,4.35-1.89,6.08-.88,1.24-2.06,2.32-2.44,3.84.58-2.03-.06-4.33-.1-6.44-.05-2.98,1.39-6.62,2.48-9.39Z"/><path d="M37.81,57.11c-.36,0-.73-.31-.73-.73s.52-.88.93-1.24c10.36-9.22,18.07-16.37,18.07-26.31,0-7.41-4.76-9.58-8.23-9.58-2.49,0-4.04.57-5.54,1.97-1.24,1.19-1.86,3-1.86,5.02,0,.47-.16.78-.42.78-.21,0-.36-.21-.41-.67-.05-.47-.31-4.76-.31-6.37,0-.31.05-.47.52-.78,1.92-.88,4.92-1.81,9.11-1.81,7.82,0,11.71,4.97,11.71,10.46,0,10.72-11.6,20.3-18.02,25.79-.26.21-.15.36.1.36h3.78c.88,0,6.99-.05,8.86-.26,3.78-.36,5.44-1.92,6.11-4.97.1-.57.26-.78.57-.78.26,0,.31.31.31.62,0,.98-1.04,5.18-1.55,6.94-.41,1.4-1.19,1.61-3.37,1.61-10.72.05-17.56-.05-19.63-.05Z"/></g></svg>