<?xml version="1.0" encoding="UTF-8"?><svg id="_レイヤー_1" xmlns="http://www.w3.org/2000/svg" xmlns:xlink="http://www.w3.org/1999/xlink" viewBox="0 0 300 300"><defs><style>.cls-1{fill:none;}.cls-2{fill:#231815;}.cls-3{clip-path:url(#clippath);}</style><clipPath id="clippath"><rect class="cls-1" x="-320" width="300" height="300"/></clipPath></defs><g class="cls-3"><path class="cls-2" d="M54.55,158.65l-212.13,212.13-60.1-60.1L-74.55,167.4l-156.11,111.42c-6.36,4.54-15.08,3.82-20.61-1.71l-23.59-23.58c-5.47-5.47-6.24-14.08-1.83-20.44l107.08-154.18-128.7,128.56c-6.25,6.24-16.37,6.24-22.62,0l-48.79-48.79L-157.58-53.48-77.9,26.21c5.42,5.42,6.24,13.91,1.96,20.25-8.57,12.69-18.44,26.78-29.62,42.28l-44.2,63.72L-45.95,77.21c6.37-4.62,15.14-3.92,20.7,1.64l79.8,79.8Z"/></g><rect class="cls-2" x="80.47" y="26.4" width="139.05" height="247.21" rx="20.62" ry="20.62" transform="translate(-33.71 43.93) rotate(-15)"/></svg>